# xmcd
#
# Track frame offsets: 
#        150
#        13796
#        26138
#        42578
#        57992
#        73531
#        90185
#        101030
#        114786
#        128521
#        144021
#        158555
#        170146
#        179680
#        193044
#        208301
#        224381
#        235296
#        252199
#        263520
#
# Disc length: 3723 seconds
#
# Revision: 3
# Processed by: cddbd v1.5.1PL2 Copyright (c) Steve Scherf et al.
# Submitted via: ExactAudioCopy v0.95b4
#
DISCID=190e8914
DTITLE=Slim Whitman - 20 Greatest All-Time Hymns
DYEAR=2006
DGENRE=Gospel
TTITLE0=He
TTITLE1=I'll Fly Away (with Byron)
TTITLE2=Who at My Door is Standing
TTITLE3=Mansion over the Hilltop
TTITLE4=Suppertime (with Byron)
TTITLE5=Precious Memories
TTITLE6=Under His Wings
TTITLE7=I Know Who Holds Tomorrow
TTITLE8=A Closer Walk With Thee
TTITLE9=How Great thou art
TTITLE10=Beyond The Sunset
TTITLE11=Have Thine Own Way Lord (with Byron)
TTITLE12=Camping in Canaan's Land
TTITLE13=Sunrise
TTITLE14=I Will Pilot Thee
TTITLE15=Whispering Hope (with Byron)
TTITLE16=He Keeps Me Singing
TTITLE17=Face to Face
TTITLE18=Everybody Needs Someone to Care (with Byron)
TTITLE19=God Be With You
EXTD=\n\n\n
EXTT0=
EXTT1=
EXTT2=
EXTT3=
EXTT4=
EXTT5=
EXTT6=
EXTT7=
EXTT8=
EXTT9=
EXTT10=
EXTT11=
EXTT12=
EXTT13=
EXTT14=
EXTT15=
EXTT16=
EXTT17=
EXTT18=
EXTT19=
PLAYORDER=
